<?xml version="1.0" encoding="utf-8"?>
<!-- Generator: Adobe Illustrator 22.0.1, SVG Export Plug-In . SVG Version: 6.00 Build 0)  -->
<svg version="1.1" id="Layer_1" xmlns="http://www.w3.org/2000/svg" xmlns:xlink="http://www.w3.org/1999/xlink" x="0px" y="0px"
	 viewBox="0 0 874 658" style="enable-background:new 0 0 874 658;" xml:space="preserve">
<style type="text/css">
	.st0{clip-path:url(#SVGID_2_);fill:#FEFEFE;}
	.st1{clip-path:url(#SVGID_2_);fill:#FE0303;}
	.st2{clip-path:url(#SVGID_2_);fill:#02AFFE;}
	.st3{clip-path:url(#SVGID_2_);fill:#020204;}
	.st4{clip-path:url(#SVGID_2_);fill:#FEFAFA;}
	.st5{clip-path:url(#SVGID_2_);fill:#01ACFA;}
	.st6{clip-path:url(#SVGID_2_);fill:#02ABF9;}
	.st7{clip-path:url(#SVGID_2_);fill:#FDFEFE;}
	.st8{clip-path:url(#SVGID_2_);fill:#FD0303;}
	.st9{clip-path:url(#SVGID_2_);fill:#020203;}
	.st10{clip-path:url(#SVGID_2_);fill:#FC0303;}
	.st11{clip-path:url(#SVGID_2_);fill:#010203;}
	.st12{clip-path:url(#SVGID_2_);fill:#FDF6F7;}
	.st13{clip-path:url(#SVGID_2_);fill:#FEFDFD;}
	.st14{clip-path:url(#SVGID_2_);fill:#01AEFD;}
	.st15{clip-path:url(#SVGID_2_);fill:#FAF8F9;}
</style>
<g>
	<defs>
		<rect id="SVGID_1_" x="-0.5" width="875" height="658"/>
	</defs>
	<clipPath id="SVGID_2_">
		<use xlink:href="#SVGID_1_"  style="overflow:visible;"/>
	</clipPath>
	<path class="st0" d="M683.9,409.1c0,35.2,0,70.4,0,105.5c-164.6,0-329.2,0-493.8,0c0-123.8,0-247.6,0-371.3
		c164.6,0,329.2,0,493.8,0c0,87.1,0,174.2,0,261.3c-0.1-0.1-0.4-0.2-0.4-0.3c-2.1-9.6-4.2-19.2-6.4-28.9
		c-3.1-13.8-6.1-27.7-9.2-41.5c-1.7-7.7-7.7-11.4-15.4-9.7c-1.9,0.4-3.8,0.8-5.9,1.3c-0.2-0.8-0.5-1.5-0.6-2.3
		c-1.1-5.1-2.3-10.3-3.4-15.4c-0.5-2.1-1.4-3.7-3.8-3.8c-3.4-0.1-5.4,1.9-4.7,5.3c1.2,6,2.6,11.9,3.9,18.1c-3.4,0.8-6.6,1.5-10,2.2
		c-0.2-0.9-0.5-1.5-0.6-2.1c-1.2-5.5-2.4-11-3.6-16.5c-0.4-2-1.2-3.8-3.6-4c-3.5-0.4-5.7,2.1-4.9,5.6c1.4,6.3,2.8,12.6,4.2,19
		c-4.2,0.9-8.1,1.8-12,2.6c-0.2-0.6-0.3-0.8-0.3-1.1c-1.3-6-2.7-12.1-4-18.1c-0.8-3.3-2.8-4.6-5.6-3.8c-2.5,0.8-3.5,2.4-2.9,5.2
		c1.4,6.5,2.8,13,4.3,19.7c-4.1,0.9-8,1.8-12,2.7c-0.3-0.9-0.5-1.5-0.6-2.1c-1.4-6.1-2.7-12.3-4.1-18.4c-0.8-3.6-2.5-4.9-5.4-4.2
		c-3,0.7-3.9,2.4-3.1,6c1.5,6.8,3,13.7,4.5,20.6c-4.2,0.9-8.1,1.8-12.1,2.6c-1.6-7.3-3.1-14.2-4.7-21.2c-0.7-3.1-2.5-4.2-5.3-3.5
		c-2.9,0.7-3.8,2.5-3,6.1c1.5,6.8,3,13.5,4.6,20.4c-4.2,0.9-8,1.8-12.2,2.7c-1.6-7.2-3.1-14-4.7-20.9c-0.8-3.4-2.4-4.5-5.4-3.8
		c-2.8,0.6-3.8,2.5-3,5.8c1.5,6.8,3,13.7,4.6,20.7c-4.1,0.9-8,1.8-12,2.7c-0.3-1.1-0.5-2-0.7-2.9c-1.3-6-2.7-12.1-4-18.1
		c-0.5-2.1-1.4-3.7-3.8-3.8c-3.4-0.1-5.3,1.9-4.7,5.3c1.4,7.1,3.1,14.1,4.7,21.4c-4.1,0.9-8,1.8-12.1,2.7
		c-1.7-7.4-3.2-14.4-4.9-21.5c-0.7-2.8-2.5-3.9-5.3-3.2c-2.5,0.6-3.7,2.4-3.2,5.1c0.4,2,0.9,4,1.4,6c1.1,5.1,2.2,10.2,3.3,15.3
		c-2.7,0.8-5.1,1.6-7.5,2.3c-0.4,0.1-0.8,0.1-1.2,0.2c-18.9-0.2-37.8-0.5-56.7-0.6c-6.5,0-10.2,4-11,10.5c-0.5,4.4-1.2,8.8-2.4,13
		c-3,10.6-9.3,18.4-19.8,22.7c-6,2.5-12.2,3.5-18.7,3.8c-21.2,1-37.5-7.5-48.4-25.6c-7.3-12.1-10.5-25.7-11.3-39.7
		c-0.9-14.5-0.9-29.2,1.3-43.6c2.3-15.6,7.4-29.9,19.4-40.9c4.1-3.7,8.6-6.7,13.7-8.6c10.7-4.1,21.6-5,32.9-3.4
		c11.9,1.7,20.9,7.2,27,17.6c3.9,6.6,5.5,13.9,7.3,21.2c1.4,5.9,4.6,8.8,10.5,9.3c4.8,0.4,9.6,0.5,14.4,0.5
		c27.6-0.1,55.3-0.2,82.9-0.5c7.9-0.1,12.1-4.7,11.8-12.6c-0.3-10.5-2.2-20.7-5.3-30.7c-3.9-12.7-10.4-24-17.5-35.2
		c-8.9-14.2-20.6-25.9-33.1-36.7c-9.2-7.9-19.5-14-30.3-19.4c-10.1-5.1-20.6-9.1-31.5-12.1c-13.4-3.7-27.1-5.1-40.9-5.9
		c-21.4-1.2-42.5,0.5-63.1,6.4c-30.6,8.7-57.3,24.2-79.4,47.3c-11.8,12.3-21.6,26-29,41.3c-11.5,23.9-17.1,49.2-18.5,75.5
		c-1,18.7-0.2,37.4,2.8,55.9c3.9,23.7,11.7,45.7,24.8,65.9c13.6,21.2,30.9,38.5,52.5,51.5c13.3,8,27.7,13.7,42.8,17.7
		c15,3.9,30.2,7.3,45.7,8.1c14.7,0.8,29.5,0,44.2-2c24.4-3.4,47.3-11,68-24.6c13.6-8.9,25.5-19.8,35.8-32.4c0.2-0.1,0.3-0.1,0.5-0.2
		c2.5-0.3,4.9-0.6,7.4-0.9c1.6,7.2,3.1,14.1,4.7,21.1c0.8,3.4,3.8,4.5,6.7,2.8c2.3-1.3,2-3.4,1.6-5.5c-1.5-6.8-3-13.5-4.6-20.5
		c4.1-0.9,8-1.8,12-2.7c0.3,0.9,0.5,1.6,0.7,2.3c1.4,6.3,2.8,12.6,4.3,18.9c0.7,3,2.6,4.1,5.4,3.3c2.6-0.6,3.6-2.5,3-5.4
		c-1.5-7-3.1-13.9-4.7-21.1c4.1-0.9,8-1.8,12.1-2.7c1.6,7.3,3.2,14.2,4.7,21.2c0.5,2.4,1.8,3.9,4.5,3.6c3.4-0.3,4.7-2.3,3.8-6.3
		c-1.5-6.7-3-13.5-4.6-20.4c4.2-0.9,8.1-1.8,12.2-2.7c1.6,7.1,3.1,14,4.6,20.8c0.8,3.3,2.5,4.5,5.4,3.9c2.8-0.6,3.8-2.5,3.1-5.8
		c-1.5-6.8-3-13.7-4.6-20.8c4.1-0.9,8-1.8,12.1-2.7c1.6,7.1,3.1,14,4.7,21c0.7,3,2.1,4.1,4.6,3.9c3.4-0.3,4.6-2.4,3.8-6.3
		c-1.5-6.8-3-13.5-4.6-20.4c4.2-0.9,8.1-1.8,12.1-2.7c0.2,0.7,0.4,1.1,0.5,1.5c1.5,6.6,2.9,13.2,4.4,19.8c0.7,2.9,2.5,4,5.1,3.4
		c2.7-0.6,3.9-2.6,3.3-5.5c-0.4-1.8-0.8-3.7-1.2-5.5c-1.1-5.2-2.3-10.4-3.4-15.7c4.2-0.9,8-1.8,12-2.7c0.3,1,0.6,1.9,0.8,2.8
		c1.3,6,2.7,12.1,4,18.1c0.8,3.5,3.1,4.8,6.2,3.5c2.3-1,2.8-2.8,2.3-5.1c-1.6-7-3.1-14.1-4.7-21.3c4-0.9,7.8-1.7,11.7-2.6
		c0.3,1.1,0.5,2,0.7,2.9c1.3,6,2.6,11.9,4,17.9c0.7,3.2,2.4,4.5,5,4c3-0.5,4.1-2.4,3.5-5.9c-0.2-1.3-0.6-2.6-0.9-3.8
		c-1.2-5.6-2.5-11.3-3.7-17c1.5-0.3,2.7-0.6,3.9-0.9c3.7-0.7,7.1-1.8,9.4-5C682.3,412.3,683,410.7,683.9,409.1z"/>
	<path class="st1" d="M683.9,409.1c-0.9,1.5-1.6,3.1-2.6,4.5c-2.3,3.2-5.7,4.4-9.4,5c-1.2,0.2-2.4,0.5-3.9,0.9
		c1.3,5.7,2.5,11.4,3.7,17c0.3,1.3,0.6,2.6,0.9,3.8c0.6,3.5-0.5,5.3-3.5,5.9c-2.6,0.5-4.3-0.9-5-4c-1.3-6-2.6-11.9-4-17.9
		c-0.2-0.9-0.4-1.8-0.7-2.9c-3.9,0.9-7.7,1.7-11.7,2.6c1.6,7.2,3.1,14.2,4.7,21.3c0.5,2.3,0,4.1-2.3,5.1c-3.1,1.3-5.4,0-6.2-3.5
		c-1.4-6-2.7-12.1-4-18.1c-0.2-0.9-0.5-1.8-0.8-2.8c-4,0.9-7.8,1.7-12,2.7c1.2,5.3,2.3,10.5,3.4,15.7c0.4,1.8,0.9,3.7,1.2,5.5
		c0.6,3-0.5,4.9-3.3,5.5c-2.6,0.6-4.4-0.5-5.1-3.4c-1.5-6.6-3-13.2-4.4-19.8c-0.1-0.4-0.3-0.9-0.5-1.5c-4,0.9-7.9,1.7-12.1,2.7
		c1.5,6.9,3.1,13.7,4.6,20.4c0.9,3.9-0.4,6-3.8,6.3c-2.5,0.2-3.9-0.9-4.6-3.9c-1.6-6.9-3.1-13.9-4.7-21c-4.1,0.9-8,1.8-12.1,2.7
		c1.6,7.1,3.1,13.9,4.6,20.8c0.7,3.3-0.3,5.2-3.1,5.8c-2.9,0.6-4.6-0.6-5.4-3.9c-1.6-6.8-3-13.7-4.6-20.8c-4.1,0.9-8,1.8-12.2,2.7
		c1.6,7,3.1,13.7,4.6,20.4c0.9,3.9-0.4,6-3.8,6.3c-2.7,0.2-4-1.2-4.5-3.6c-1.5-7-3.1-13.9-4.7-21.2c-4.1,0.9-8.1,1.8-12.1,2.7
		c1.6,7.2,3.1,14.2,4.7,21.1c0.6,2.9-0.4,4.8-3,5.4c-2.9,0.7-4.7-0.3-5.4-3.3c-1.5-6.3-2.8-12.6-4.3-18.9c-0.2-0.7-0.4-1.4-0.7-2.3
		c-4,0.9-7.9,1.8-12,2.7c1.6,7,3.1,13.8,4.6,20.5c0.5,2.1,0.7,4.1-1.6,5.5c-2.9,1.7-5.9,0.5-6.7-2.8c-1.6-6.9-3.1-13.9-4.7-21.1
		c-2.5,0.3-5,0.6-7.4,0.9c3-4.1,5.9-8.3,8.9-12.4c0.2-0.1,0.4-0.3,0.6-0.4c0.3,0,0.6,0,0.8,0c50.4-11.2,100.7-22.4,151.1-33.6
		c3.6-0.8,3.8-1.1,3-4.4c-4.9-22.1-9.8-44.1-14.7-66.2c-0.6-2.6-1.6-3.2-4.3-2.6c-27.5,6.2-55.1,12.2-82.7,18.4
		c-13.4,3-26.7,6-40.1,9c-0.5,0-1,0-1.5,0c-1-0.1-2.1-0.2-3.1-0.2c-12.7-0.4-25.3-0.7-38-1.1c2.4-0.7,4.8-1.5,7.5-2.3
		c-1.1-5.1-2.2-10.2-3.3-15.3c-0.4-2-1-4-1.4-6c-0.5-2.7,0.7-4.5,3.2-5.1c2.7-0.6,4.6,0.4,5.3,3.2c1.7,7,3.2,14.1,4.9,21.5
		c4.1-0.9,8-1.8,12.1-2.7c-1.6-7.3-3.2-14.4-4.7-21.4c-0.7-3.4,1.2-5.4,4.7-5.3c2.5,0.1,3.4,1.7,3.8,3.8c1.3,6,2.7,12.1,4,18.1
		c0.2,0.9,0.5,1.8,0.7,2.9c4-0.9,7.9-1.8,12-2.7c-1.6-7.1-3.1-13.9-4.6-20.7c-0.7-3.3,0.2-5.2,3-5.8c3-0.7,4.6,0.4,5.4,3.8
		c1.6,6.8,3.1,13.7,4.7,20.9c4.1-0.9,8-1.8,12.2-2.7c-1.6-6.9-3.1-13.7-4.6-20.4c-0.8-3.7,0.1-5.4,3-6.1c2.8-0.7,4.6,0.4,5.3,3.5
		c1.6,6.9,3.1,13.9,4.7,21.2c4.1-0.9,8-1.7,12.1-2.6c-1.5-7-3-13.8-4.5-20.6c-0.8-3.6,0.1-5.3,3.1-6c2.9-0.7,4.6,0.6,5.4,4.2
		c1.4,6.1,2.7,12.3,4.1,18.4c0.1,0.6,0.4,1.2,0.6,2.1c4-0.9,7.9-1.8,12-2.7c-1.5-6.7-2.9-13.2-4.3-19.7c-0.6-2.8,0.4-4.4,2.9-5.2
		c2.9-0.9,4.9,0.4,5.6,3.8c1.4,6,2.7,12.1,4,18.1c0.1,0.3,0.2,0.5,0.3,1.1c3.9-0.9,7.8-1.7,12-2.6c-1.4-6.4-2.8-12.7-4.2-19
		c-0.8-3.5,1.4-6,4.9-5.6c2.4,0.3,3.2,2,3.6,4c1.2,5.5,2.4,11,3.6,16.5c0.1,0.6,0.3,1.2,0.6,2.1c3.3-0.7,6.6-1.5,10-2.2
		c-1.4-6.2-2.7-12.1-3.9-18.1c-0.7-3.4,1.3-5.4,4.7-5.3c2.5,0.1,3.4,1.7,3.8,3.8c1.1,5.1,2.3,10.3,3.4,15.4c0.2,0.7,0.4,1.4,0.6,2.3
		c2.1-0.4,4-0.8,5.9-1.3c7.7-1.7,13.6,2,15.4,9.7c3.1,13.8,6.1,27.7,9.2,41.5c2.1,9.6,4.2,19.2,6.4,28.9c0,0.1,0.3,0.2,0.4,0.3
		C683.9,406.1,683.9,407.6,683.9,409.1z"/>
	<path class="st2" d="M507.6,454.8c-10.3,12.6-22.2,23.5-35.8,32.4c-20.7,13.6-43.6,21.2-68,24.6c-14.7,2-29.4,2.8-44.2,2
		c-15.5-0.9-30.6-4.2-45.7-8.1c-15.1-3.9-29.4-9.7-42.8-17.7c-21.6-13-38.8-30.3-52.5-51.5c-13-20.2-20.9-42.3-24.8-65.9
		c-3-18.6-3.8-37.2-2.8-55.9c1.4-26.3,7-51.7,18.5-75.5c7.4-15.4,17.2-29,29-41.3c22.1-23.1,48.8-38.6,79.4-47.3
		c20.6-5.8,41.7-7.5,63.1-6.4c13.8,0.7,27.5,2.2,40.9,5.9c10.9,3,21.4,7,31.5,12.1c10.8,5.4,21.1,11.5,30.3,19.4
		c12.6,10.8,24.2,22.5,33.1,36.7c7,11.2,13.6,22.5,17.5,35.2c3.1,10,5,20.3,5.3,30.7c0.2,7.9-4,12.6-11.8,12.6
		c-27.6,0.3-55.3,0.4-82.9,0.5c-4.8,0-9.6-0.1-14.4-0.5c-5.9-0.5-9.2-3.4-10.5-9.3c-1.7-7.3-3.4-14.6-7.3-21.2
		c-6.1-10.4-15.1-15.9-27-17.6c-11.3-1.6-22.3-0.7-32.9,3.4c-5.1,2-9.7,4.9-13.7,8.6c-12,11-17,25.4-19.4,40.9
		c-2.2,14.5-2.1,29.1-1.3,43.6c0.8,14,4,27.6,11.3,39.7c10.9,18.1,27.2,26.6,48.4,25.6c6.4-0.3,12.6-1.3,18.7-3.8
		c10.5-4.3,16.8-12.1,19.8-22.7c1.2-4.2,1.9-8.6,2.4-13c0.8-6.5,4.5-10.5,11-10.5c18.9,0.1,37.8,0.4,56.7,0.6
		c-3,2.1-5.6,4.7-5.8,8.4c-0.2,3.3,0.7,6.6,1.1,9.9c-14.9,0-29.9,0-44.9,0c-0.9,3.4-1.7,7.1-2.8,10.6c-4.2,13-11.4,23.8-23.8,30.5
		c-7.3,4-15,6.8-23.3,7.8c-11.2,1.3-22.5,1.4-33.2-2.1c-22.3-7.2-37.5-22.1-46-44c-6.2-16.1-8.7-32.8-8.5-50
		c0.2-13.1,0.1-26.1,2.8-39c3-14.3,7.7-27.8,17.4-39.2c7.7-8.9,16.5-16.1,27.7-20.1c13.4-4.8,27-6.1,41.1-4
		c11,1.6,20.9,5.3,29.2,12.8c9.8,8.8,15.6,20.1,18.8,32.7c0.2,1,0.5,1.9,0.8,2.7c27.9,0,55.6,0,83.9,0c-1.7-7.2-2.8-14.1-5-20.8
		c-4.8-14.8-12.8-28.1-22.6-40c-13-15.9-28.2-29.1-46.9-38.1c-10.3-5-20.7-9.4-31.8-12c-20.9-5-42.1-6.1-63.6-4.1
		c-14.1,1.3-27.8,4.2-41.1,9.2c-31.5,11.9-57,31.5-75.5,59.6c-14,21.3-21.4,45.2-24,70.5c-2.1,19.7-2.2,39.4,0.6,59.1
		c2.9,20.6,8.4,40.4,19.2,58.4c2.3,3.9,5.3,7.4,7.9,11.2c1.7,2.4,4.6,3.8,5,7.4c0.2,1.5,2,3.3,3.4,3.9c3.2,1.3,4.9,3.7,6.5,6.4
		c1,1.7,1.9,3.5,3.3,4.8c16.8,15.7,36.2,26.7,58.4,32.8c16.3,4.5,32.8,8.5,49.8,8.6c12.6,0.1,25.2-0.7,37.7-2.2
		c23.1-2.8,44.4-10.9,63.4-24.5c11.2-8,20.8-17.6,29.4-28.2c0.3,0.9,0.6,1.8,0.8,2.7C497.3,449.6,501,453.6,507.6,454.8z"/>
	<path class="st3" d="M482.2,379.7c-0.4-3.3-1.3-6.7-1.1-9.9c0.2-3.7,2.8-6.4,5.8-8.4c0.4-0.1,0.8-0.1,1.2-0.2
		c12.7,0.4,25.3,0.7,38,1.1c1,0,2.1,0.1,3.1,0.2c-0.3,0.1-0.7,0.3-1,0.4c-11.2,2.5-22.4,5-33.7,7.4c-2.5,0.5-3.2,1.7-2.5,4.1
		c0.5,1.8,0.7,3.6,1.1,5.5c-3.5,0-7.1,0.1-10.6,0.1C482.4,379.8,482.3,379.8,482.2,379.7z"/>
	<path class="st3" d="M507.6,454.8c-6.6-1.2-10.3-5.2-11.3-11.8c-0.1-0.9-0.5-1.8-0.8-2.7c0-0.2,0.1-0.3,0.2-0.5
		c2.7-3.8,5.4-7.6,8.1-11.3c1,4.3,2.1,8.5,3,12.8c0.4,2.1,1.5,2.8,3.5,2.3c2.2-0.5,4.4-0.9,6.6-1.3c-3,4.1-5.9,8.3-8.9,12.4
		C508,454.7,507.8,454.8,507.6,454.8z"/>
	<path class="st4" d="M530.8,362.4c13.4-3,26.7-6.1,40.1-9c27.6-6.1,55.1-12.2,82.7-18.4c2.6-0.6,3.7,0,4.3,2.6
		c4.8,22.1,9.8,44.1,14.7,66.2c0.7,3.4,0.6,3.6-3,4.4c-50.4,11.2-100.7,22.4-151.1,33.6c-0.3,0.1-0.6,0-0.8,0c1.6-3,3.3-5.9,4.9-8.9
		c0.2-0.1,0.3-0.2,0.5-0.3c14.3-3.2,28.6-6.3,42.9-9.5c29.7-6.6,59.4-13.2,89.1-19.8c5.5-1.2,8.5-5.8,7.3-11.1
		c-2.9-13.1-5.8-26.2-8.8-39.3c-1.3-5.7-5.7-8.5-11.4-7.2c-24.4,5.4-48.7,10.8-73.1,16.2c-10,2.2-20,4.3-30,6.5
		C537.3,365,534.3,363.4,530.8,362.4z"/>
	<path class="st5" d="M530.8,362.4c3.5,1,6.5,2.7,8.2,6.1c0,0.1-0.1,0.2-0.2,0.3c-10.8,2.4-21.6,4.6-32.3,7.2
		c-2,0.5-3.6,2.7-5.4,4.1c-0.1,0.1-0.2,0.2-0.4,0.3c-2.4-0.1-4.9-0.1-7.3-0.2c-0.1-0.1-0.2-0.2-0.3-0.3c-0.4-1.8-0.6-3.7-1.1-5.5
		c-0.7-2.4,0-3.6,2.5-4.1c11.3-2.4,22.5-4.9,33.7-7.4c0.4-0.1,0.7-0.3,1-0.4C529.8,362.4,530.3,362.4,530.8,362.4z"/>
	<path class="st6" d="M522.4,433c-1.6,3-3.3,5.9-4.9,8.9c-0.2,0.1-0.4,0.3-0.6,0.4c-2.2,0.4-4.4,0.8-6.6,1.3
		c-2.1,0.5-3.1-0.2-3.5-2.3c-0.9-4.3-2-8.5-3-12.8c0-0.3,0.1-0.5,0.1-0.8c1.2-2.1,2.5-4.2,3.7-6.3c0.4,1.8,0.8,3.7,1.3,5.5
		c1.3,4.6,5.1,7.1,9.8,6.6C520,433.4,521.2,433.2,522.4,433z"/>
	<path class="st7" d="M495.8,439.8c-0.1,0.2-0.1,0.3-0.2,0.5c-8.7,10.6-18.2,20.2-29.4,28.2c-19.1,13.6-40.3,21.7-63.4,24.5
		c-12.5,1.5-25.1,2.3-37.7,2.2c-17-0.1-33.5-4.1-49.8-8.6c-22.2-6.1-41.6-17.1-58.4-32.8c-1.4-1.3-2.3-3.1-3.3-4.8
		c-1.6-2.7-3.3-5.1-6.5-6.4c-1.5-0.6-3.3-2.4-3.4-3.9c-0.4-3.5-3.3-5-5-7.4c-2.6-3.7-5.6-7.3-7.9-11.2c-10.8-18-16.3-37.8-19.2-58.4
		c-2.8-19.7-2.6-39.4-0.6-59.1c2.7-25.3,10-49.2,24-70.5c18.5-28.1,44-47.7,75.5-59.6c13.3-5,27-7.9,41.1-9.2
		c21.4-2,42.6-0.9,63.6,4.1c11.1,2.6,21.5,7,31.8,12c18.7,9.1,33.9,22.3,46.9,38.1c9.8,12,17.7,25.2,22.6,40
		c2.2,6.6,3.3,13.6,5,20.8c-28.3,0-55.9,0-83.9,0c-0.2-0.8-0.5-1.7-0.8-2.7c-3.2-12.6-9-23.9-18.8-32.7
		c-8.3-7.5-18.3-11.2-29.2-12.8c-14.1-2.1-27.7-0.8-41.1,4c-11.2,4-20.1,11.2-27.7,20.1c-9.7,11.4-14.5,24.9-17.4,39.2
		c-2.7,12.9-2.6,26-2.8,39c-0.3,17.2,2.3,33.9,8.5,50c8.4,21.9,23.7,36.8,46,44c10.8,3.5,22,3.5,33.2,2.1c8.3-1,16-3.8,23.3-7.8
		c12.4-6.7,19.6-17.5,23.8-30.5c1.2-3.6,1.9-7.2,2.8-10.6c15.1,0,30,0,44.9,0c0.1,0.1,0.2,0.1,0.3,0.2
		C486.9,399.9,491.3,419.9,495.8,439.8z"/>
	<path class="st8" d="M495.8,439.8c-4.4-20-8.9-40-13.3-60c3.5,0,7.1-0.1,10.6-0.1c0.1,0.1,0.2,0.2,0.3,0.3
		c3.5,15.9,7,31.7,10.5,47.6c0,0.3-0.1,0.5-0.1,0.8C501.2,432.3,498.5,436.1,495.8,439.8z"/>
	<path class="st1" d="M538.8,368.8c0.1-0.1,0.1-0.2,0.2-0.3c10-2.2,20-4.3,30-6.5c24.4-5.4,48.7-10.8,73.1-16.2
		c5.7-1.2,10,1.5,11.4,7.2c3,13.1,5.9,26.2,8.8,39.3c1.2,5.4-1.9,9.9-7.3,11.1c-29.7,6.6-59.4,13.2-89.1,19.8
		c-14.3,3.2-28.6,6.3-42.9,9.5c1.8-4,3.6-8,5.4-12c0.2-0.1,0.3-0.2,0.4-0.3c0.2-0.1,0.4-0.3,0.5-0.4l0,0.1c1.1-0.1,2.2-0.1,3.3-0.3
		c32.7-7.2,65.4-14.5,98.1-21.8c6.8-1.5,13.7-3.1,20.8-4.6c-2.8-12.4-5.5-24.5-8.2-36.7c-23.8,5.3-47.3,10.5-70.7,15.7
		c-11,2.4-22,4.8-33,7.2c0-1.1,0.1-2.2,0-3.3C539.4,373.6,539.1,371.2,538.8,368.8z"/>
	<path class="st9" d="M528.4,420.6c-1.8,4-3.6,8-5.4,12c-0.2,0.1-0.3,0.2-0.5,0.3c-1.2,0.2-2.4,0.5-3.6,0.6c-4.7,0.5-8.5-2-9.8-6.6
		c-0.5-1.8-0.9-3.6-1.3-5.5c0-0.3,0.1-0.6,0.1-0.9c2.4-5.4,4.7-10.9,7.1-16.3c0,0,0.1-0.1,0.1-0.1l0.2,0c1.3,6.1,2.5,12.1,3.8,18.3
		C522.4,421.9,525.4,421.3,528.4,420.6z"/>
	<path class="st10" d="M514.9,404.3c-2.4,5.4-4.7,10.9-7.1,16.3c-2.4-10.8-5-21.5-7.2-32.3c-0.5-2.5,0.1-5.3,0.3-7.9
		c0.1-0.1,0.3-0.2,0.4-0.3c6.3,0.2,12.6,0.4,19.1,0.6c0,1.2,0,2.1,0,3c-0.2,0.1-0.3,0.2-0.5,0.3c-2.9,0.6-5.8,1.2-8.8,1.9
		C512.3,392.3,513.6,398.3,514.9,404.3z"/>
	<path class="st11" d="M520.2,383.7c0-0.9,0-1.8,0-3c-6.4-0.2-12.8-0.4-19.1-0.6c1.8-1.4,3.4-3.6,5.4-4.1
		c10.7-2.6,21.5-4.8,32.3-7.2c0.2,2.4,0.5,4.8,0.7,7.2c0.1,1.1,0,2.2,0,3.3c0,0.1-0.1,0.3-0.2,0.4c-0.7,0.1-1.5,0.1-2.2,0.3
		C531.5,381.3,525.9,382.5,520.2,383.7z"/>
	<path class="st12" d="M500.8,380.4c-0.1,2.7-0.8,5.4-0.3,7.9c2.2,10.8,4.8,21.5,7.2,32.3c0,0.3-0.1,0.6-0.1,0.9
		c-1.2,2.1-2.5,4.2-3.7,6.3c-3.5-15.9-7-31.7-10.5-47.6C495.9,380.2,498.4,380.3,500.8,380.4z"/>
	<path class="st13" d="M539.3,379.8c0.1-0.1,0.2-0.3,0.2-0.4c11-2.4,22-4.7,33-7.2c23.4-5.2,46.9-10.4,70.7-15.7
		c2.7,12.2,5.4,24.3,8.2,36.7c-7.1,1.6-13.9,3.1-20.8,4.6c-32.7,7.3-65.4,14.5-98.1,21.8c-1.1,0.2-2.2,0.2-3.3,0.3
		c0.3-1,0.4-2.1,0.8-3.1C535,404.9,538,392.6,539.3,379.8z"/>
	<path class="st14" d="M539.3,379.8c-1.3,12.8-4.3,25.2-9.2,37.1c-0.4,1-0.6,2.1-0.8,3.1c0,0,0-0.1,0-0.1c-0.2,0.1-0.4,0.3-0.5,0.4
		c-0.1,0.1-0.3,0.2-0.4,0.3c-3,0.6-6,1.2-9.4,1.9c-1.3-6.2-2.5-12.3-3.8-18.3c0.2-0.9,0.5-1.8,0.7-2.7c1.3-5.8,2.6-11.7,3.8-17.5
		c0.2-0.1,0.3-0.2,0.5-0.3c5.6-1.2,11.3-2.4,16.9-3.6C537.9,379.9,538.6,379.9,539.3,379.8z"/>
	<path class="st13" d="M528.8,420.3c0.2-0.1,0.4-0.3,0.5-0.4C529.1,420,529,420.2,528.8,420.3z"/>
	<path class="st15" d="M519.7,384c-1.3,5.8-2.6,11.7-3.8,17.5c-0.2,0.9-0.5,1.8-0.7,2.7c0,0-0.2,0-0.2,0s-0.1,0.1-0.1,0.1
		c-1.3-6-2.6-12-3.9-18.4C514,385.2,516.8,384.6,519.7,384z"/>
</g>
</svg>
